HIERARCHY
ROOT root
{
	OFFSET	0	13.1	24.9
	CHANNELS 6  Xposition Yposition Zposition Xrotation Yrotation Zrotation
	JOINT spine_1
	{
		OFFSET	0	9.99999	0
		CHANNELS 3  Xrotation Yrotation Zrotation
		JOINT spine_2
		{
			OFFSET	0	112	-10
			CHANNELS 3  Xrotation Yrotation Zrotation
			JOINT spine_3
			{
				OFFSET	0	206.5	19.3
				CHANNELS 3  Xrotation Yrotation Zrotation
				JOINT spine_4
				{
					OFFSET	0	110.4	14.6
					CHANNELS 3  Xrotation Yrotation Zrotation
					JOINT neck_1
					{
						OFFSET	0	71.8	-50.3
						CHANNELS 3  Xrotation Yrotation Zrotation
						JOINT neck_2
						{
							OFFSET	0	86.2	-25.8
							CHANNELS 3  Xrotation Yrotation Zrotation
							JOINT head_ee
							{
								OFFSET	0	179.8	-8.7
								CHANNELS 3  Xrotation Yrotation Zrotation
								End Site
								{
									OFFSET	1	0	0
								}
							}
						}
					}
					JOINT left_clavicle
					{
						OFFSET	-43.2	22.4	-70.8
						CHANNELS 3  Xrotation Yrotation Zrotation
						JOINT left_shoulder
						{
							OFFSET	-93.9	-5.79999	48.7
							CHANNELS 3  Xrotation Yrotation Zrotation
							JOINT left_elbow
							{
								OFFSET	-291.4	-30.8	15.2
								CHANNELS 3  Xrotation Yrotation Zrotation
								JOINT left_lowarm_twist
								{
									OFFSET	-110.7	-3.89999	13.6
									CHANNELS 3  Xrotation Yrotation Zrotation
									JOINT left_hand
									{
										OFFSET	-110.7	-3.89999	13.6
										CHANNELS 3  Xrotation Yrotation Zrotation
										JOINT left_ee
										{
											OFFSET	-80.8	-5.10001	12.1
											CHANNELS 3  Xrotation Yrotation Zrotation
											End Site
											{
												OFFSET	1	0	0
											}
										}
									}
								}
							}
						}
					}
					JOINT right_clavicle
					{
						OFFSET	43.2	22.4	-70.8
						CHANNELS 3  Xrotation Yrotation Zrotation
						JOINT right_shoulder
						{
							OFFSET	93.9	-5.79999	48.7
							CHANNELS 3  Xrotation Yrotation Zrotation
							JOINT right_elbow
							{
								OFFSET	291.4	-30.8	15.2
								CHANNELS 3  Xrotation Yrotation Zrotation
								JOINT right_lowarm_twist
								{
									OFFSET	110.7	-3.89999	13.6
									CHANNELS 3  Xrotation Yrotation Zrotation
									JOINT right_hand
									{
										OFFSET	110.7	-3.89999	13.6
										CHANNELS 3  Xrotation Yrotation Zrotation
										JOINT right_ee
										{
											OFFSET	80.8	-5.10001	12.1
											CHANNELS 3  Xrotation Yrotation Zrotation
											End Site
											{
												OFFSET	1	0	0
											}
										}
									}
								}
							}
						}
					}
				}
			}
		}
	}
	JOINT left_hip
	{
		OFFSET	-82.8	-127.5	0.300001
		CHANNELS 3  Xrotation Yrotation Zrotation
		JOINT left_knee
		{
			OFFSET	-28.2	-396.7	2.2
			CHANNELS 3  Xrotation Yrotation Zrotation
			JOINT left_ankle
			{
				OFFSET	-11.7	-411.3	35.4
				CHANNELS 3  Xrotation Yrotation Zrotation
				JOINT left_toes
				{
					OFFSET	0	-60	-88.6
					CHANNELS 3  Xrotation Yrotation Zrotation
					JOINT left_foot_ee
					{
						OFFSET	-22.5	-16.5	-42.2
						CHANNELS 3  Xrotation Yrotation Zrotation
						End Site
						{
							OFFSET	1	0	0
						}
					}
				}
			}
		}
	}
	JOINT right_hip
	{
		OFFSET	82.8	-127.5	0.300001
		CHANNELS 3  Xrotation Yrotation Zrotation
		JOINT right_knee
		{
			OFFSET	28.2	-396.7	2.2
			CHANNELS 3  Xrotation Yrotation Zrotation
			JOINT right_ankle
			{
				OFFSET	11.7	-411.3	35.4
				CHANNELS 3  Xrotation Yrotation Zrotation
				JOINT right_toes
				{
					OFFSET	0	-60	-88.6
					CHANNELS 3  Xrotation Yrotation Zrotation
					JOINT right_foot_ee
					{
						OFFSET	22.5	-16.5	-42.2
						CHANNELS 3  Xrotation Yrotation Zrotation
						End Site
						{
							OFFSET	1	0	0
						}
					}
				}
			}
		}
	}
}
MOTION
Frames: 10
Frame Time: 0.02
2549.81422355 749.216 -1497.18369983 141.148768169 82.1118899736 -144.550270529 -1.15373 0.00476414 1.01043 -1.15316 -0.0595384 1.00868 -1.15384 -0.289792 0.967996 -1.15512 -0.133286 1.00161 -13.857 6.15751 -1.08275 -13.968 12.4042 0.907412 -0.0 0.0 -0.0 3.33141 17.6355 7.18444 -3.20518 -38.8728 70.5182 0.189962 -5.37592 0.00891842 -3.33823 -0.129515 0.406504 -1.42577 19.7031 -0.55209 -0.0 0.0 -0.0 9.56315 1.09516 -18.7984 7.23323 -3.38551 -72.6367 1.49767 36.5694 -0.494887 -81.0741 7.95794 -5.26399 -4.65625 -10.0835 26.6826 0.0 0.0 0.0 9.22094 14.8225 -10.5945 -34.6819 -0.163543 5.23966 31.4857 22.7599 -4.22362 0.931885 -0.0 -0.0 -0.0 0.0 -0.0 9.77809 6.06408 -3.41271 -14.4636 -0.320495 -2.1906 15.0132 11.1184 2.21014 15.5306 -0.0 -0.0 0.0 0.0 0.0 
2539.83151629 747.356 -1482.78490316 151.115689084 79.5298383209 -153.627037653 -1.13276 0.0169352 1.05205 -1.13215 -0.05004 1.051 -1.13266 -0.2899 1.01147 -1.13406 -0.126529 1.04455 -13.3147 6.0838 -1.31931 -13.4144 12.4026 0.599239 -0.0 0.0 -0.0 3.25788 17.7863 7.07476 -3.83288 -38.6628 71.1961 0.168578 -4.77375 0.00702686 -3.30895 -0.128276 0.40297 -1.45871 20.9815 -0.164736 -0.0 0.0 -0.0 9.23918 1.79643 -18.1501 8.25356 -2.65721 -72.5913 1.56045 37.7014 -0.53279 -81.2767 7.98358 -5.26073 -4.5978 -10.0099 26.3066 0.0 0.0 0.0 10.6878 13.9986 -10.9736 -32.4284 -0.0565843 4.91049 28.2552 23.7702 -3.87602 0.524417 -0.0 -0.0 -0.0 0.0 -0.0 8.77918 6.20415 -3.05729 -13.8653 -0.318268 -2.09883 15.6821 10.8315 2.29779 15.2745 -0.0 -0.0 0.0 0.0 0.0 
2533.66437804 745.276 -1464.05860739 159.550618007 76.6115436512 -162.359119064 -1.11833 -0.0319362 1.15181 -1.1176 -0.105159 1.14744 -1.11926 -0.365442 1.09277 -1.12088 -0.188285 1.13677 -13.6465 5.92277 -1.83049 -13.7477 12.4139 0.099124 -0.0 0.0 -0.0 3.08897 18.0426 6.8223 -4.90558 -38.1296 71.9483 0.152256 -4.31336 0.00573385 -3.12542 -0.120553 0.380816 -1.36722 21.8015 0.741507 -0.0 0.0 -0.0 9.14931 2.56231 -17.982 9.50609 -1.97905 -73.0994 1.6227 38.7906 -0.571327 -81.4542 8.00601 -5.2578 -4.63978 -9.65787 26.8376 0.0 0.0 0.0 11.5906 13.5714 -11.0881 -30.2995 0.0324777 4.59595 27.9479 24.3809 -3.85282 -0.044987 0.0 0.0 -0.0 0.0 -0.0 8.09973 6.49472 -2.53119 -12.9363 -0.312912 -1.9564 16.2996 10.511 2.37717 15.7685 -0.0 -0.0 0.0 0.0 0.0 
2513.42453042 744.932 -1436.76259254 165.152700971 74.2052103668 -168.443030842 -1.11818 -0.0281866 1.3792 -1.11712 -0.115883 1.37462 -1.11925 -0.427991 1.31143 -1.12159 -0.215524 1.36256 -10.5659 4.11782 -5.31246 -10.527 11.3083 -4.10324 -0.0 0.0 -0.0 2.78019 18.8972 6.38136 -7.69321 -37.0999 72.1606 0.196644 -5.56387 0.00955534 -2.09736 -0.0786047 0.256275 -0.662887 28.8662 7.67857 -0.0 0.0 -0.0 9.05868 5.96752 -17.8285 11.2421 -0.0259684 -71.0629 1.64981 39.2548 -0.588395 -79.8807 7.8067 -5.28133 -4.03819 -7.97858 23.5434 0.0 0.0 0.0 12.5715 13.3279 -10.1524 -19.163 0.304659 2.91125 21.0745 25.6587 -3.02074 -6.12157 0.0 0.0 -0.0 0.0 -0.0 5.77748 6.87384 -1.48239 -9.83882 -0.278383 -1.48243 21.5519 10.7834 3.06689 12.4841 -0.0 -0.0 0.0 0.0 0.0 
2508.9364665 745.35 -1426.63599803 168.260085805 72.781569084 -170.27963488 -1.04787 0.0240447 1.37463 -1.04682 -0.0634672 1.37338 -1.04766 -0.375021 1.32272 -1.05007 -0.161437 1.36534 -9.86051 3.47808 -5.97374 -9.78384 10.5928 -4.98549 -0.0 0.0 -0.0 2.87572 18.9385 6.52684 -8.25608 -36.8396 72.4711 0.20552 -5.81331 0.0104351 -1.67359 -0.0619664 0.204726 -0.292766 29.1286 9.78894 -0.0 0.0 -0.0 9.20652 6.69702 -18.1424 11.5259 0.604111 -70.7181 1.66449 39.5037 -0.597708 -79.7152 7.7857 -5.28349 -3.97214 -7.25056 23.5009 0.0 0.0 0.0 13.1147 13.0876 -9.65458 -16.5715 0.320703 2.51399 19.3845 25.7294 -2.79911 -7.82012 0.0 0.0 -0.0 0.0 -0.0 5.17059 6.98053 -1.03613 -7.5407 -0.236235 -1.13233 22.2832 11.4181 3.16992 11.0965 -0.0 -0.0 0.0 0.0 0.0 
2509.21941392 745.35 -1424.91534438 168.477610322 72.450722016 -170.507569477 -1.04787 0.0240447 1.37463 -1.04682 -0.0634672 1.37338 -1.04766 -0.375021 1.32272 -1.05007 -0.161437 1.36534 -9.86051 3.47808 -5.97374 -9.78384 10.5928 -4.98549 -0.0 0.0 -0.0 2.87572 18.9385 6.52684 -8.25608 -36.8396 72.4711 0.20552 -5.81331 0.0104351 -1.67359 -0.0619664 0.204726 -0.292766 29.1286 9.78894 -0.0 0.0 -0.0 9.20652 6.69702 -18.1424 11.5259 0.604111 -70.7181 1.66449 39.5037 -0.597708 -79.7152 7.7857 -5.28349 -3.97214 -7.25056 23.5009 0.0 0.0 0.0 13.1147 13.0876 -9.65458 -16.5715 0.320703 2.51399 19.3845 25.7294 -2.79911 -7.82012 0.0 0.0 -0.0 0.0 -0.0 5.17059 6.98053 -1.03613 -7.5407 -0.236235 -1.13233 22.2832 11.4181 3.16992 11.0965 -0.0 -0.0 0.0 0.0 0.0 
2509.47434654 745.35 -1423.41674221 168.660542999 72.1620994679 -170.699584746 -1.04787 0.0240447 1.37463 -1.04682 -0.0634672 1.37338 -1.04766 -0.375021 1.32272 -1.05007 -0.161437 1.36534 -9.86051 3.47808 -5.97374 -9.78384 10.5928 -4.98549 -0.0 0.0 -0.0 2.87572 18.9385 6.52684 -8.25608 -36.8396 72.4711 0.20552 -5.81331 0.0104351 -1.67359 -0.0619664 0.204726 -0.292766 29.1286 9.78894 -0.0 0.0 -0.0 9.20652 6.69702 -18.1424 11.5259 0.604111 -70.7181 1.66449 39.5037 -0.597708 -79.7152 7.7857 -5.28349 -3.97214 -7.25056 23.5009 0.0 0.0 0.0 13.1147 13.0876 -9.65458 -16.5715 0.320703 2.51399 19.3845 25.7294 -2.79911 -7.82012 0.0 0.0 -0.0 0.0 -0.0 5.17059 6.98053 -1.03613 -7.5407 -0.236235 -1.13233 22.2832 11.4181 3.16992 11.0965 -0.0 -0.0 0.0 0.0 0.0 
2510.56137534 745.35 -1417.48561446 169.330400584 71.0154888263 -171.405542947 -1.04787 0.0240447 1.37463 -1.04682 -0.0634672 1.37338 -1.04766 -0.375021 1.32272 -1.05007 -0.161437 1.36534 -9.86051 3.47808 -5.97374 -9.78384 10.5928 -4.98549 -0.0 0.0 -0.0 2.87572 18.9385 6.52684 -8.25608 -36.8396 72.4711 0.20552 -5.81331 0.0104351 -1.67359 -0.0619664 0.204726 -0.292766 29.1286 9.78894 -0.0 0.0 -0.0 9.20652 6.69702 -18.1424 11.5259 0.604111 -70.7181 1.66449 39.5037 -0.597708 -79.7152 7.7857 -5.28349 -3.97214 -7.25056 23.5009 0.0 0.0 0.0 13.1147 13.0876 -9.65458 -16.5715 0.320703 2.51399 19.3845 25.7294 -2.79911 -7.82012 0.0 0.0 -0.0 0.0 -0.0 5.17059 6.98053 -1.03613 -7.5407 -0.236235 -1.13233 22.2832 11.4181 3.16992 11.0965 -0.0 -0.0 0.0 0.0 0.0 
2510.96564104 745.35 -1415.43862882 169.543370296 70.6181587924 -171.631032109 -1.04787 0.0240447 1.37463 -1.04682 -0.0634672 1.37338 -1.04766 -0.375021 1.32272 -1.05007 -0.161437 1.36534 -9.86051 3.47808 -5.97374 -9.78384 10.5928 -4.98549 -0.0 0.0 -0.0 2.87572 18.9385 6.52684 -8.25608 -36.8396 72.4711 0.20552 -5.81331 0.0104351 -1.67359 -0.0619664 0.204726 -0.292766 29.1286 9.78894 -0.0 0.0 -0.0 9.20652 6.69702 -18.1424 11.5259 0.604111 -70.7181 1.66449 39.5037 -0.597708 -79.7152 7.7857 -5.28349 -3.97214 -7.25056 23.5009 0.0 0.0 0.0 13.1147 13.0876 -9.65458 -16.5715 0.320703 2.51399 19.3845 25.7294 -2.79911 -7.82012 0.0 0.0 -0.0 0.0 -0.0 5.17059 6.98053 -1.03613 -7.5407 -0.236235 -1.13233 22.2832 11.4181 3.16992 11.0965 -0.0 -0.0 0.0 0.0 0.0 
2510.34682973 745.35 -1418.60400405 169.210285092 71.2322244477 -171.278600741 -1.04787 0.0240447 1.37463 -1.04682 -0.0634672 1.37338 -1.04766 -0.375021 1.32272 -1.05007 -0.161437 1.36534 -9.86051 3.47808 -5.97374 -9.78384 10.5928 -4.98549 -0.0 0.0 -0.0 2.87572 18.9385 6.52684 -8.25608 -36.8396 72.4711 0.20552 -5.81331 0.0104351 -1.67359 -0.0619664 0.204726 -0.292766 29.1286 9.78894 -0.0 0.0 -0.0 9.20652 6.69702 -18.1424 11.5259 0.604111 -70.7181 1.66449 39.5037 -0.597708 -79.7152 7.7857 -5.28349 -3.97214 -7.25056 23.5009 0.0 0.0 0.0 13.1147 13.0876 -9.65458 -16.5715 0.320703 2.51399 19.3845 25.7294 -2.79911 -7.82012 0.0 0.0 -0.0 0.0 -0.0 5.17059 6.98053 -1.03613 -7.5407 -0.236235 -1.13233 22.2832 11.4181 3.16992 11.0965 -0.0 -0.0 0.0 0.0 0.0 
